# xmcd CD database file
#
# Track frame offsets:
#	150
#	12463
#	25495
#	41068
#	56394
#	67379
#	82731
#	98892
#	119949
#	135281
#	148801
#	166247
#	179242
#	199560
#	213937
#	228985
#	243745
#	260146
#	270591
#	284387
#	304709
#	324543
#	337701
#
# Disc length: 4749 seconds
#
# Revision: 1
# Processed by: cddbd v1.5.1PL2 Copyright (c) Steve Scherf et al.
# Submitted via: CDex 1.51
#
DISCID=5e128b17
DTITLE=June Carter Cash and Various - Wildwood Flower (1-13) Unbroken Circle (14-23)
DYEAR=1900
DGENRE=Country
TTITLE0=June Carter Cash - Keep on the Sunny Side
TTITLE1=June Carter Cash - The Road to Kaintuck
TTITLE2=June Carter Cash - Kneeling Drunkard's Plea (1944 Carter Girls Intro)
TTITLE3=June Carter Cash - Storms are on the Ocean
TTITLE4=June Carter Cash - Temptation (Little Junie Intro)
TTITLE5=June Carter Cash - Big Yellow Peaches
TTITLE6=June Carter Cash - Alcatraz
TTITLE7=June Carter Cash - Sinking in the Lonesome Sea
TTITLE8=June Carter Cash - Church in the Wildwood, Loneso
TTITLE9=June Carter Cash - Cannonball Blues
TTITLE10=June Carter Cash - Will You Miss Me When I'm Gone
TTITLE11=June Carter Cash - Anchored in Love
TTITLE12=June Carter Cash - Wildwood Flower
TTITLE13=01 - George Jones-Worried Man Blues
TTITLE14=02 - Sheryl Crow-No Depression In Heaven
TTITLE15=03 - Emmylou Harris With The Peasall Sisters-On The Sea Of Galilee
TTITLE16=04 - Johnny Cash-Engine One-Forty-Three
TTITLE17=06 - Janette And Joe Carter-Little Moses
TTITLE18=11 - The Whites With Ricky Skaggs-Will My Mother Know Me There
TTITLE19=12 - Rosanne Cash-The Winding Stream
TTITLE20=13 - The Del Mccoury Band-Rambling Boy
TTITLE21=14 - June Carter Cash With Johnny Cash-Hold Fast To The Right
TTITLE22=15 - The Nitty Gritty Dirt Band With Kris Kristofferson-Gold Watch And Chain
EXTD=
EXTT0=
EXTT1=
EXTT2=
EXTT3=
EXTT4=
EXTT5=
EXTT6=
EXTT7=
EXTT8=
EXTT9=
EXTT10=
EXTT11=
EXTT12=
EXTT13=
EXTT14=
EXTT15=
EXTT16=
EXTT17=
EXTT18=
EXTT19=
EXTT20=
EXTT21=
EXTT22=
PLAYORDER=
